<?xml version="1.0" encoding="UTF-8"?>
<svg id="Layer_1" xmlns="http://www.w3.org/2000/svg" width="16" height="16" version="1.1" viewBox="0 0 16 16">
  <path d="M12.3,7.13c-1.08-2.95-4.2-5.96-4.2-5.96,0,0-3.12,3.01-4.2,5.96-.24.55-.37,1.16-.37,1.8,0,2.52,2.04,4.57,4.57,4.57s4.57-2.04,4.57-4.57c0-.64-.13-1.25-.37-1.8Z" fill="#98d81d"/>
  <path d="M12.92,8.79c0-.67-.13-1.32-.39-1.93C11.43,3.87,8.38.9,8.24.77l-.24-.24-.24.24c-.13.12-3.19,3.1-4.28,6.08-.27.62-.4,1.27-.4,1.94,0,2.59,2.02,4.72,4.57,4.9v1.42c0,.19.16.35.35.35s.35-.16.35-.35v-1.42c2.55-.18,4.57-2.31,4.57-4.9h0ZM8.35,12.99v-1.24l2.67-2.7c.14-.14.14-.36,0-.5s-.36-.14-.5,0l-2.17,2.19v-2.45l1.96-1.98c.14-.14.14-.36,0-.5s-.36-.14-.5,0l-1.46,1.48v-2.28c0-.19-.16-.35-.35-.35s-.35.16-.35.35v2.2l-1.46-1.41c-.14-.14-.36-.13-.5,0-.14.14-.13.36,0,.5l1.95,1.88v2.44l-2.18-2.08c-.14-.13-.36-.13-.5.01s-.13.36.01.5l2.66,2.54v1.38c-2.16-.18-3.86-1.99-3.86-4.2,0-.58.12-1.14.35-1.68.86-2.36,3.12-4.81,3.87-5.58.75.77,3,3.22,3.87,5.58v.02c.24.53.35,1.09.35,1.66,0,2.2-1.7,4.02-3.86,4.2h-.01Z" fill="#5f8916"/>
</svg>